<svg xmlns="http://www.w3.org/2000/svg" width="32" height="32" fill="currentColor" viewBox="0 0 256 256">
    <path d="M 110.5 208 C 99.3 173.6 80.1 156 48.1 144.8 A 0.8 0.8 90 0 1 48.1 142.4 C 79.3 132 99.3 113.6 110.5 79.2 A 0.8 0.8 90 0 1 112.9 79.2 C 124.1 112 139.3 130.4 176.1 142.4 A 0.8 0.8 90 0 1 176.1 144.8 C 140.1 159.2 124.1 173.6 112.9 208 A 0.8 0.8 90 0 1 110.5 208 Z" opacity="0.2"></path>
    <path d="M 201 140 C 154 122 131 100 117 55 A 15.92 10 90 0 0 106 55 C 93 93 70 123 23 140 A 10 15.92 90 0 0 23 150 C 69 167 89 190 106 233 A 15.92 10 90 0 0 117 233 C 133 188 154 168 201 150 A 10 15.92 90 0 0 201 140 M 183 112.5 C 176 91 164 80 144 73 A 0.5 0.5 90 0 1 144 71.5 C 163.5 65 176 53.5 183 32 A 0.5 0.5 90 0 1 184.5 32 C 191.5 52.5 201 64 224 71.5 A 0.5 0.5 90 0 1 224 73 C 201.5 82 191.5 91 184.5 112.5 A 0.5 0.5 90 0 1 183 112.5 Z M 110.5 208 C 99.3 173.6 80.1 156 48.1 144.8 A 0.8 0.8 90 0 1 48.1 142.4 C 79.3 132 99.3 113.6 110.5 79.2 A 0.8 0.8 90 0 1 112.9 79.2 C 124.1 112 139.3 130.4 176.1 142.4 A 0.8 0.8 90 0 1 176.1 144.8 C 140.1 159.2 124.1 173.6 112.9 208 A 0.8 0.8 90 0 1 110.5 208 Z"></path>
</svg>